<svg width="220" height="220" viewBox="0 0 220 220" fill="none" xmlns="http://www.w3.org/2000/svg">
<g clip-path="url(#clip0_4508_9466)">
<rect width="220" height="220" rx="45" fill="white"/>
<rect x="17.2158" y="43.563" width="181.605" height="129.077" fill="white"/>
<path fill-rule="evenodd" clip-rule="evenodd" d="M262.664 242H-34.3364V-22H262.664V242ZM36.8638 70C35.9638 70 34.1638 70.5999 32.8638 71.2998C31.6638 71.9998 29.7636 74.1997 28.6636 76.0996C26.8636 79.0996 26.6636 81.3 26.6636 94.5C26.6636 102.8 27.1632 112.4 27.7632 116C28.3632 119.7 30.1634 125 31.9634 128.4C33.7634 131.6 37.2638 136.2 39.8638 138.6C42.5638 141 47.2638 144.2 50.3638 145.8C55.5637 148.2 57.2636 148.5 67.1636 148.5C77.5636 148.5 78.5636 148.3 84.6636 145.3C88.6636 143.4 93.0638 140.2 95.8638 137.1C98.5637 134.3 101.864 129.4 103.364 126.3C106.064 120.6 106.164 120 106.564 99C106.764 84.5 106.563 76.7998 105.763 75.2998C105.163 73.9999 103.164 72.3004 101.364 71.4004C99.4638 70.4004 96.9636 70.0004 95.1636 70.4004C93.4637 70.7004 91.0636 72.0997 89.6636 73.5996C87.1739 76.0893 87.1633 76.4967 86.6694 96.0557L86.6636 96.2998C86.1636 115.7 86.0636 116.7 83.6636 120.4C82.2635 122.5 79.1635 125.4 76.6636 126.8C73.4636 128.6 70.7636 129.4 67.1636 129.3C64.1636 129.3 60.5636 128.5 58.1636 127.3C55.9639 126.1 53.4643 124.4 52.564 123.4C51.664 122.3 50.1632 120 49.2632 118.3C47.9633 115.6 47.6636 111.599 47.6636 97.5C47.6636 84.2 47.2636 79.2 46.1636 76.5C45.3636 74.5 43.3636 72.3 41.6636 71.5C39.9637 70.7001 37.8638 70.0001 36.8638 70ZM185.164 72C182.064 72 180.363 73.3 169.963 83.5C163.463 89.8 157.764 95 157.164 95C156.564 95 150.964 89.8 144.664 83.5C133.864 72.7 132.964 72.0996 129.164 72.0996C126.864 71.9996 124.264 72.7999 123.064 73.7998C121.864 74.6998 120.363 76.4998 119.763 77.7998C119.163 78.9998 118.664 81.1998 118.664 82.7998C118.664 84.9998 123.963 90.8002 148.963 115.7C165.963 132.8 180.463 146.499 182.164 147.1C184.164 147.9 186.164 148 188.064 147.4C189.664 146.9 191.864 145.2 193.064 143.7C194.264 142.1 195.163 139.4 195.164 137.4C195.164 134.4 193.764 132.7 183.164 122L171.164 110C188.564 92.6 194.064 86.2998 194.564 84.7998C195.164 83.1998 195.364 80.7997 194.864 79.2998C194.464 77.8998 192.964 75.5998 191.364 74.2998C189.664 72.8998 187.364 72 185.164 72ZM135.664 117C135.364 117 131.863 120.3 127.963 124.3C124.063 128.2 120.363 132.5 119.763 133.8C119.163 135 118.664 137.1 118.664 138.5C118.664 139.9 119.764 142.4 121.164 144C122.564 145.7 125.064 147.3 126.864 147.6C128.964 148 131.264 147.6 133.164 146.7C134.764 145.8 139.264 142 143.164 138.1L150.164 131C139.264 120.1 135.964 117 135.664 117Z" fill="black"/>
</g>
<defs>
<clipPath id="clip0_4508_9466">
<rect width="220" height="220" rx="45" fill="white"/>
</clipPath>
</defs>
</svg>
